<svg version="1.1" id="layer" x="0" y="0" xml:space="preserve" xmlns="http://www.w3.org/2000/svg" viewBox="0 0 652 150">
  <style type="text/css" id="style824">
    .st0{fill:#1a473c}
  </style>
  <path class="st0" d="M101.7 33.8s-5.2 11.3-7.8 16.9c-12.9-6-29.7-6.9-43.9 1.7-9.4 5.9-17.1 16.3-17.9 27.5-.3 7.5 2.9 15.7 1.9 23.1-.3 4-1.2 8-3 11.5-2.4 4-5.2 7.5-9.9 7.7 1.1-1.3 8.3-5 5.5-21.8-1.1-6.7-10.1-23.2-1.4-43.9 7.9-18.9 42.3-41.3 76.5-22.7" id="path826"/>
  <path class="st0" d="M62.4 66.9c4.4-1.6 9.4-1.7 14.2-.6 8.9 1.6 15.6 7.1 18.9 15.2 3.4 8.5 5.8 15.4 11.7 22.6.2.2-9.1-1.4-9.1-1.7 2.3-16.9-13.4-17.5-17.7-11.2 3.2 3.6 8.8 5.5 13.2 4.8-.9 16.7 3.7 31.9 3.4 31.9-3.7-.5-20.8-10.8-25.8-15.2-7.4 1.3-13.1 4.1-21.6 5.3-.3 0 1.6-6.4 1.3-9.6 0-8.8-6.6-17.1-1.9-27.9 2.6-6.4 6.8-11.2 13.4-13.6" id="path828"/>
  <path class="st0" d="M68.5 61.9c.5 0 1.3.1 1.3.1.1-.6.6-4.8 4.1-7.8 3.9-3.4 9-3.1 9-3.1-5.1-1.6-10.3-1.7-14-1.4z" id="path830"/>
  <path class="st0" d="M36.1 77c-.8 5-.8 9.7-.4 12.1 0 0 .7-4.3 3.1-6.7 2.1-2.1 4.7-2.5 5.7-2.5 0 0 .5-1.6.4-1.6z" id="path832"/>
  <path class="st0" d="M46 76.1c.2-.7.6-1.3.9-2l-9-3.6c-.6 1.1-1 2.9-1.2 3.8z" id="path834"/>
  <path class="st0" d="M48.2 72.6s1.4-1.9 1.5-1.9l-8.3-6.3c-.9 1.1-1.6 2.3-2.1 3.6z" id="path836"/>
  <path class="st0" d="m51.2 69.2 1.9-1.7-7.2-8.3c-1.6 1.4-2.1 2.1-3.1 3.3z" id="path838"/>
  <path class="st0" d="M55 66.3c0 .1 2.1-1.2 2.1-1.3l-5.3-9.9c-2.1 1-3.4 2.1-4 2.5z" id="path840"/>
  <path class="st0" d="M58.9 64.1c2.6-.9 2.5-.9 2.5-.9l-3-11.1c-1.7.5-4 1.5-4.5 1.9z" id="path842"/>
  <path class="st0" d="M63.4 62.6c.1 0 2.3-.5 2.3-.5l.3-12c-.1.1-2.7.5-5 1.1z" id="path844"/>
  <path class="st0" id="rect846" d="M137.6 22.6h1.4v113.1h-1.4z"/>
  <path class="st0" d="M158.4 64.3c0-7.3 5.3-13.3 12.6-13.3 4.5 0 7.2 1.7 9.8 4.1l-1.3 1.4c-2.2-2.2-4.7-3.8-8.5-3.8-6 0-10.6 5-10.6 11.4v.1c0 6.5 4.6 11.5 10.6 11.5 3.6 0 6.1-1.4 8.7-4l1.3 1.2c-2.7 2.7-5.5 4.5-10 4.5-7.3.1-12.6-5.7-12.6-13.1" id="path848"/>
  <path class="st0" d="M183.3 67.8c0-5.3 4-9.8 9.4-9.8s9.4 4.5 9.4 9.7v.1c0 5.2-4 9.8-9.5 9.8-5.4-.1-9.3-4.6-9.3-9.8m16.9 0c0-4.6-3.3-8.1-7.5-8.1-4.3 0-7.5 3.6-7.5 8v.1c0 4.5 3.3 8.1 7.5 8.1 4.4-.1 7.5-3.7 7.5-8.1" id="path850"/>
  <path class="st0" id="rect852" d="M207 50.4h1.8v26.7H207z"/>
  <path class="st0" id="rect854" d="M215.3 50.4h1.8v26.7h-1.8z"/>
  <path class="st0" d="M222 67.8c0-5.5 3.7-9.8 8.7-9.8 5.1 0 8.4 4.2 8.4 9.7v.7h-15.2c.3 4.6 3.6 7.3 7.2 7.3 2.8 0 4.8-1.3 6.3-2.9l1.2 1.1c-1.9 2-4.1 3.5-7.6 3.5-4.9.1-9-3.8-9-9.6m15.2-.9c-.2-3.8-2.4-7.2-6.6-7.2-3.6 0-6.4 3.1-6.8 7.2z" id="path856"/>
  <path class="st0" d="m243.1 80.1 1-1.5c2.2 1.7 4.7 2.6 7.4 2.6 4.2 0 7.2-2.4 7.2-7.2v-2.7c-1.6 2.3-4 4.3-7.7 4.3-4.4 0-8.8-3.4-8.8-8.8v-.1c0-5.4 4.4-8.8 8.8-8.8 3.7 0 6.1 2 7.7 4.2v-3.7h1.8v15.7c0 2.7-.9 4.8-2.3 6.3-1.6 1.6-4 2.5-6.6 2.5-3.1.1-5.9-.9-8.5-2.8m15.8-13.2c0-4.4-3.8-7.2-7.6-7.2s-7.1 2.7-7.1 7v.1c0 4.2 3.3 7.1 7.1 7.1s7.6-2.8 7.6-7" id="path858"/>
  <path class="st0" d="M265.2 67.8c0-5.5 3.7-9.8 8.7-9.8 5.1 0 8.4 4.2 8.4 9.7v.7h-15.2c.3 4.6 3.6 7.3 7.2 7.3 2.8 0 4.8-1.3 6.3-2.9l1.2 1.1c-1.9 2-4.1 3.5-7.6 3.5-4.8.1-9-3.8-9-9.6m15.2-.9c-.3-3.8-2.4-7.2-6.6-7.2-3.6 0-6.4 3.1-6.8 7.2z" id="path860"/>
  <path class="st0" d="M295.6 67.8c0-5.3 4-9.8 9.4-9.8s9.4 4.5 9.4 9.7v.1c0 5.2-4 9.8-9.4 9.8-5.5-.1-9.4-4.6-9.4-9.8m16.9 0c0-4.6-3.3-8.1-7.5-8.1-4.3 0-7.5 3.6-7.5 8v.1c0 4.5 3.3 8.1 7.5 8.1 4.4-.1 7.5-3.7 7.5-8.1" id="path862"/>
  <path class="st0" d="M320.2 60.1h-2.7v-1.6h2.7v-1.8c0-2.1.6-3.8 1.6-4.9.9-1 2.2-1.5 3.8-1.5 1.1 0 1.9.1 2.7.4v1.7c-1-.3-1.8-.5-2.7-.5-2.5 0-3.7 1.5-3.7 4.7v1.8h6.4V60h-6.4v17h-1.8V60.1Z" id="path864"/>
  <path class="st0" id="polygon866" transform="translate(0 -244)" d="M343.7 307.3h16.1v-11.8h1.9V321h-1.9v-11.9h-16.1V321h-1.9v-25.5h1.9z"/>
  <path class="st0" d="M367.7 69.8V58.4h1.8v11.1c0 3.8 2.1 6.4 5.8 6.4 3.6 0 6.4-2.8 6.4-6.6V58.5h1.8V77h-1.8v-3.5c-1.2 2.2-3.3 3.9-6.6 3.9-4.7.1-7.4-3.1-7.4-7.6" id="path868"/>
  <path class="st0" d="M389.3 58.4h1.8v3.3c1.2-1.9 2.8-3.8 6.1-3.8 3.2 0 5.2 1.9 6.2 4 1.2-2.1 3.2-4 6.6-4 4.3 0 7 3.1 7 7.8V77h-1.8V66c0-4-2-6.4-5.4-6.4-3.1 0-5.8 2.4-5.8 6.6V77h-1.8V65.8c0-3.9-2.1-6.2-5.4-6.2-3.3 0-5.9 2.9-5.9 6.7V77h-1.8V58.4Z" id="path870"/>
  <path class="st0" d="M421.3 71.6c0-3.9 3.3-6.1 8-6.1 2.5 0 4.3.3 6.1.8v-.8c0-3.8-2.3-5.7-6-5.7-2.2 0-4.1.6-5.8 1.5l-.6-1.6c2-1 4-1.6 6.5-1.6s4.5.7 5.8 2c1.2 1.2 1.9 3 1.9 5.3V77h-1.7v-3.1c-1.3 1.8-3.5 3.5-7 3.5-3.6.1-7.2-1.9-7.2-5.8m14.1-1.5V68c-1.5-.4-3.6-.8-6.2-.8-3.9 0-6 1.8-6 4.3v.1c0 2.7 2.5 4.3 5.3 4.3 3.7-.1 6.9-2.4 6.9-5.8" id="path872"/>
  <path class="st0" d="M442.7 58.4h1.8v3.5c1.2-2.2 3.3-3.9 6.6-3.9 4.6 0 7.3 3.2 7.3 7.7V77h-1.8V66c0-3.8-2.1-6.4-5.8-6.4-3.6 0-6.4 2.8-6.4 6.6V77h-1.8V58.4Z" id="path874"/>
  <path class="st0" id="polygon876" transform="translate(0 -244)" d="M496.4 295.5h1.7V321h-1.8v-22.2l-10 14.8h-.1l-10-14.8V321h-1.8v-25.5h1.8l10.1 15.1z"/>
  <path class="st0" d="M503.2 67.8c0-5.5 3.7-9.8 8.7-9.8 5.1 0 8.4 4.2 8.4 9.7v.7h-15.2c.3 4.6 3.6 7.3 7.2 7.3 2.8 0 4.8-1.3 6.3-2.9l1.2 1.1c-1.9 2-4.1 3.5-7.6 3.5-4.8.1-9-3.8-9-9.6m15.2-.9c-.2-3.8-2.4-7.2-6.6-7.2-3.6 0-6.4 3.1-6.8 7.2z" id="path878"/>
  <path class="st0" d="M523.6 67.8c0-6.1 4.5-9.8 8.9-9.8 3.7 0 6 2.1 7.5 4.5V50.4h1.8V77H540v-4.2c-1.6 2.4-3.9 4.6-7.5 4.6-4.4.1-8.9-3.5-8.9-9.6m16.5 0c0-4.9-3.7-8.1-7.5-8.1-4 0-7.2 3-7.2 8v.1c0 4.9 3.3 8 7.2 8 3.9 0 7.5-3.3 7.5-8" id="path880"/>
  <path class="st0" d="M547.8 51.1h2.2v2.4h-2.2zm.2 7.3h1.8V77H548Z" id="path882"/>
  <path class="st0" d="M554.7 67.8c0-5.3 4.1-9.8 9.3-9.8 3.4 0 5.6 1.6 7.3 3.4l-1.3 1.3c-1.6-1.6-3.4-3.1-6.1-3.1-4.2 0-7.4 3.5-7.4 8v.1c0 4.5 3.3 8.1 7.5 8.1 2.6 0 4.6-1.3 6.1-3.1l1.2 1.1c-1.9 2.2-4.1 3.7-7.5 3.7-5 0-9.1-4.5-9.1-9.7" id="path884"/>
  <path class="st0" d="M575.8 51.1h2.2v2.4h-2.2zm.2 7.3h1.8V77H576Z" id="path886"/>
  <path class="st0" d="M584 58.4h1.8v3.5c1.2-2.2 3.3-3.9 6.6-3.9 4.6 0 7.3 3.2 7.3 7.7V77h-1.8V66c0-3.8-2.1-6.4-5.8-6.4-3.6 0-6.4 2.8-6.4 6.6V77H584Z" id="path888"/>
  <path class="st0" d="M604.1 67.8c0-5.5 3.7-9.8 8.7-9.8 5.1 0 8.4 4.2 8.4 9.7v.7H606c.3 4.6 3.6 7.3 7.2 7.3 2.8 0 4.8-1.3 6.3-2.9l1.2 1.1c-1.9 2-4.1 3.5-7.6 3.5-4.9.1-9-3.8-9-9.6m15.2-.9c-.3-3.8-2.4-7.2-6.6-7.2-3.6 0-6.4 3.1-6.8 7.2z" id="path890"/>
  <path class="st0" d="M401 92.9v12.7c0 2.1.7 5.1 4.3 5.1 3.4 0 4.6-2.4 4.6-5.4l-.1-12.4c0-.7-.3-1.1-.8-1.4h3.3c-.4.2-.7.7-.7 1.4l-.1 12.4c0 5.1-2.9 7.1-6.7 7.1-3.3 0-7.5-1.6-7.5-6.9V92.9c0-.7-.5-1.1-.9-1.4h5.4c-.3.3-.8.7-.8 1.4" id="path892"/>
  <path class="st0" d="M430.9 92.9c0-.7-.3-1.1-.7-1.4h3.1c-.4.2-.7.7-.7 1.4V113S419 95.9 419 95.6v15.2c0 .6.3 1.1.8 1.4h-3.2c.4-.3.7-.7.7-1.4V94.6c0-1.2 0-1.2-.5-1.9-.3-.4-.7-.8-1.3-1.2h4.9l10.4 13.3V92.9Z" id="path894"/>
  <path class="st0" d="M442.4 91.5c-.5.2-.7.7-.7 1.4v17.9c0 .6.3 1.1.7 1.4h-5.1c.4-.3.7-.7.7-1.4V92.9c0-.7-.3-1.1-.7-1.4z" id="path896"/>
  <path class="st0" d="M459.6 93c.3-.8.1-1.2-.6-1.5h3.5c-.7.5-.8.7-1.1 1.5-.5 1.2-7.3 19.8-7.3 19.8s-7.4-18.7-7.9-19.8c-.3-.6-.7-1.1-1.5-1.5h6.2c-.7.3-.8.9-.6 1.7.1.3 4.8 12.7 4.8 12.7s4.5-12.6 4.5-12.9" id="path898"/>
  <path class="st0" d="M476.7 94.2c-.5-.8-1.1-1-2.2-1.1-.8-.1-4.8-.1-4.8-.1v7h4.3c.4 0 .9-.5 1-.8v3.2c-.1-.4-.6-.9-1-.9h-4.3v8.9c.6.1 2.3.2 3.7.2 2.5-.1 3.6 0 4.6-1.9l-.6 3.5h-12.1c.5-.3.8-.6.8-1.4V92.9c0-.7-.4-1.1-.8-1.4h11.4z" id="path900"/>
  <path class="st0" d="M489.1 101.7c1.9.2 2.8 1.6 3.2 2.3 0 0 3.4 5.8 4.4 7 .5.7 1.8 1.2 1.8 1.2l-3.7.1c-1.1 0-2-.7-2.5-1.4-1.3-1.9-2.5-4.1-3.5-5.8-.7-1.2-1.4-2.5-2.6-2.5-.3 0-1.3.1-1.3.1v8.3c0 .6.3 1.1.8 1.4h-5.1c.4-.3.7-.7.7-1.4V93.1c0-.7-.3-1.1-.7-1.4h6.1c5.9 0 7.2 3.1 7.2 5.1 0 3.1-2.8 4.7-4.8 4.9M485 93v7.9s.8.1 1.3.1c1.9 0 4-1.2 4-4.2 0-1.4-.8-3.8-3.6-3.8H485" id="path902"/>
  <path class="st0" d="M511.6 106.1c0 3.8-3.1 6.4-6.6 6.4-2.6 0-4.4-.9-5.4-1.5l-.1-5.1c.5 2.2 2.2 5 5.2 5 2.8 0 3.6-2.1 3.6-3.6 0-2.9-2.5-3.3-5-4.8-2.6-1.5-3.7-3.2-3.7-5.5 0-4.1 3.6-5.7 6.2-5.7.9 0 2.8.2 4.3 1.1l.1 4.5c-.4-1.6-2-4-4.7-4-2.2 0-3 1.6-3 2.9 0 1.9 1.2 2.5 3.9 3.8 2.5 1.3 5.2 2.3 5.2 6.5" id="path904"/>
  <path class="st0" d="M519.6 91.5c-.5.2-.7.7-.7 1.4v17.9c0 .6.3 1.1.7 1.4h-5.1c.4-.3.7-.7.7-1.4V92.9c0-.7-.3-1.1-.7-1.4z" id="path906"/>
  <path class="st0" d="M531.9 93v17.7c0 .6.3 1.1.7 1.4h-5.1c.4-.3.7-.7.7-1.4V93c-2.1 0-4.5.2-4.5.2-.7 0-1.2.7-1.4 1.2v-2.9h15.5v2.9c-.2-.5-.6-1.1-1.3-1.2 0 .1-2.5-.2-4.6-.2" id="path908"/>
  <path class="st0" d="M556.3 91.5c-.9.3-1.5 1.1-1.9 1.8l-4.5 9.2v8.2c0 .6.5 1.1 1 1.4h-5.7c.4-.3 1-.6 1-1.4v-8.1l-5.5-9.7c-.4-.7-.7-1-1.5-1.5h6.4c-.7.3-1.2.5-.5 1.9l4 7.5 3.7-7.8c.4-.7.2-1.3-.6-1.5z" id="path910"/>
  <path class="st0" d="M174.3 91.8h4.7c-.5.2-.7.7-.7 1.3v17.6c0 .7.3 1.1.7 1.3h-5c.4-.3.7-.7.7-1.3v-15c0-.4.1-.7.1-.7l-.3.7-6.7 16.8-6.8-16.3-.2-.8v15.4c0 .7.3 1.1.8 1.3h-3.1c.4-.3.7-.7.7-1.3V93.2c0-.6-.4-1.1-.9-1.3h4.9l5.6 13.7z" id="path912"/>
  <path class="st0" d="M188.5 91.8c-.5.2-.7.7-.7 1.3v17.6c0 .7.3 1.1.7 1.3h-5.1c.5-.3.7-.7.7-1.3V93.1c0-.7-.3-1.1-.7-1.3z" id="path914"/>
  <path class="st0" d="M209.9 97.7c-1.7-4.2-5-4.6-6.3-4.6-4.8 0-7.5 3.7-7.5 8.6 0 4.1 1.9 9.2 7.7 9.2 1.3 0 4.5-.5 6.3-4.6.1-.1-.2 4.3-.2 4.3-2.3 1.4-4.8 1.9-7.1 1.9-5.5 0-10.4-4-10.4-10.4 0-5.2 3.6-10.6 10.7-10.6 2.3 0 4.4.5 6.6 1.6 0-.1.3 4.7.2 4.6" id="path916"/>
  <path class="st0" d="M226.3 91.8h5.1c-.5.2-.8.7-.8 1.3v17.6c0 .7.3 1.1.8 1.3h-5.1c.5-.3.7-.7.7-1.3v-9.2h-8.7v9.2c0 .7.2 1.1.7 1.3h-5c.5-.3.7-.7.7-1.3V93.1c0-.7-.3-1.1-.7-1.3h5c-.5.2-.7.7-.7 1.3v7h8.7v-7c0-.6-.2-1.1-.7-1.3" id="path918"/>
  <path class="st0" d="M240.9 91.8c-.5.2-.7.7-.7 1.3v17.6c0 .7.3 1.1.7 1.3h-5.1c.5-.3.7-.7.7-1.3V93.1c0-.7-.3-1.1-.7-1.3z" id="path920"/>
  <path class="st0" d="m262.1 93 .2 4.8c-1.4-4.1-5-4.7-6.3-4.7-4.7 0-7.5 3.7-7.5 8.6 0 4.1 1.9 9.2 7.7 9.2.6 0 2.2-.1 3.5-1v-5.2c0-.7-.3-1.1-.7-1.4h5c-.4.3-.7.7-.7 1.4v4.4c0 .6.3 1.1.5 1.2-2.4 1.4-6.3 2.2-8.5 2.2-5.6 0-10.5-4-10.5-10.4 0-5.2 3.7-10.6 10.8-10.6 2.3 0 4.3.5 6.5 1.5" id="path922"/>
  <path class="st0" d="M282.5 110.7c.3.6.5 1 1.4 1.5h-6c.7-.4.9-.8.7-1.5-.1-.3-.8-2.1-1.6-4.2h-6.8c-.8 2-1.5 3.8-1.6 4.1-.2.7-.1 1.1.6 1.5h-3.8c.8-.6 1-.9 1.3-1.5.5-1.1 7.9-19.5 7.9-19.5s7.4 18.4 7.9 19.6m-6.1-5.7c-1.3-3.3-2.8-7.3-2.8-7.3s-1.9 5.1-2.8 7.3z" id="path924"/>
  <path class="st0" d="M299.7 93.2c0-.7-.3-1.1-.7-1.3h3.1c-.4.2-.7.7-.7 1.3V113S288 96.1 288 95.8v15c0 .7.3 1.1.8 1.3h-3.1c.4-.3.7-.7.7-1.3v-16c0-1.2 0-1.2-.5-1.9-.3-.4-.7-.8-1.3-1.1h4.8l10.3 13.2z" id="path926"/>
  <path class="st0" d="M325 106.2c0 3.7-3.1 6.3-6.5 6.3-2.5 0-4.4-.9-5.4-1.4l-.1-5.1c.5 2.1 2.2 4.9 5.1 4.9 2.8 0 3.6-2.1 3.6-3.6 0-2.9-2.4-3.3-5-4.7-2.6-1.5-3.7-3.1-3.7-5.4 0-4.1 3.5-5.7 6.1-5.7.9 0 2.8.2 4.2 1.1l.1 4.4c-.4-1.6-2-4-4.7-4-2.1 0-2.9 1.6-2.9 2.9 0 1.8 1.2 2.5 3.8 3.8 2.7 1.3 5.4 2.3 5.4 6.5" id="path928"/>
  <path class="st0" d="M336.1 93.3v17.5c0 .7.3 1.1.7 1.3h-5c.5-.3.7-.7.7-1.3V93.3c-2.1 0-4.5.2-4.5.2-.7 0-1.1.7-1.4 1.2v-2.9H342v2.9c-.3-.5-.6-1.1-1.3-1.2 0 0-2.6-.2-4.6-.2" id="path930"/>
  <path class="st0" d="M356.5 110.7c.3.6.5 1 1.4 1.5h-6c.7-.4.9-.8.7-1.5-.1-.3-.8-2.1-1.6-4.2h-6.8c-.8 2-1.5 3.8-1.6 4.1-.3.7-.1 1.1.6 1.5h-3.9c.8-.6 1-.9 1.3-1.5.5-1.1 7.9-19.5 7.9-19.5s7.5 18.4 8 19.6m-6.1-5.7c-1.3-3.3-2.8-7.3-2.8-7.3s-1.9 5.1-2.8 7.3z" id="path932"/>
  <path class="st0" d="M365.2 93.3v17.5c0 .7.3 1.1.7 1.3h-5c.5-.3.7-.7.7-1.3V93.3c-2.1 0-4.5.2-4.5.2-.7 0-1.1.7-1.4 1.2v-2.9H371v2.9c-.2-.5-.6-1.1-1.3-1.2.1 0-2.4-.2-4.5-.2" id="path934"/>
  <path class="st0" d="M385.4 94.4c-.5-.8-1.1-1-2.2-1.1-.8-.1-4.7-.1-4.7-.1v6.9h4.2c.4 0 .9-.5 1-.8v3.2c-.1-.4-.6-.9-1-.9h-4.2v8.8c.6.1 2.3.2 3.6.2 2.4-.1 3.6 0 4.6-1.9l-.6 3.4h-12c.5-.3.8-.6.8-1.3V93.2c0-.7-.4-1.1-.8-1.3h11.2z" id="path936"/>
</svg>
