<svg xml:space="preserve" version="1.1" id="svg851" xmlns="http://www.w3.org/2000/svg" viewBox="0 0 135 67">
  <style id="style824">
    .st4{fill:#007b3b}
  </style>
  <g id="Layer_2" transform="translate(-32 -14)">
    <path class="st4" d="M83.41 64.74c-.41-.15-1.14.16-1.14.16-.17-1.05-1.35-2.49-1.35-2.49l2.49 2.33c.02-.06.75-1.64-.73-3.02-2.21-2.06-6.44-5.92-6.43-5.9.3.95 1.99 4 1.1 9.67l2.18.41.26.44s2.49.33 2.88.7c0 0 .86.6-.06 1.42 0 0 1.41-.27 2.2-1.05 0 0 .72-.62-.13-1.49l-1.27-1.18m0 0c-.01 0-.01 0 0 0" id="path826"/>
    <path class="st4" d="M71.66 51.42 40.45 22.29c-1.5-1.46-.91-3.32-.91-3.32l-2.56 5.63c-.69 1.77.37 2.88 1.11 3.48.74.59 24.91 20.16 24.91 20.16l.02.82-24.03-18.47c-1.19-.9-1.05-2.36-1.05-2.36l-1.74 3.58c-.84 2.02 1.24 3.31 2.11 3.9L63.13 53l.21 1S40.12 38.55 39.26 38.02c-1.03-.63-.95-2.09-.95-2.09l-1.7 3.64c-.71 1.48 1.32 2.52 2.21 3.06.53.32 13.52 8.07 24.22 14.44H49.15c-2.05 0-2.73-.61-2.73-.61l1.86 1.74c.32.29 1.15 1.34 2.38 1.34.87 0 5.12.01 5.12.01l1.01.44-4.47.35c-.89.04-1.14.13-2.32-.53l1.98 1.94c.55.47 1 .94 1.95.86.95-.08 6.56-1.01 6.56-1.01l.89.4-5.89 1.29c-1.34.3-2.31-.4-2.31-.4s1.11 1.09 1.85 1.81c.76.74 1.45 1.2 3.87.51.96-.27 5.75-1.79 5.75-1.79l3.08 1.34c3.1 4.29 6.96 6.56 6.96 6.56-.74.87-.11 1.89-.11 1.89.64-1.3 2.08-2.01 3.16-1.85.94.14.69 1.29.72 1.24.58-.74 1.06-1.62.47-2.37-.71-.91-2.53-.12-2.53-.12l-1.78-3.24 2.41-1.38c1.34-8.38-5.37-14.07-5.37-14.07" id="path828"/>
    <path class="st4" d="M70.01 39.32c-.4-.47-14.9-16.75-14.9-16.75-1.26-1.39-.81-2.48-.78-2.56l-1.69 3.79c-.38 1.04.33 1.72.84 2.31.52.6 15.74 16.5 15.74 16.5l-.1.87L54.71 29.1c-1.16-1.19-.84-2.09-.79-2.21l-1.55 3.49c-.35 1.08.76 1.79 1.52 2.53.81.78 16.86 15.78 18.17 16.98 2.81 2.56 4.18 5.94 4.18 5.94 1.62-8.3-4.67-14.7-6.23-16.51M54.33 20.01h.01-.01" id="path830"/>
    <path class="st4" d="m53.93 26.89.01-.02c-.01 0-.01.01-.01.02m82.19-2.66-2.73 7.51h4.15l1.03-2.88h4.06v20.58l-2.31.01-1.67 4.63h11.43l1.72-4.63-3.2-.01-.01-20.58h4.78l-.01 2.88 2.88-.01 2.72-7.51-22.84.01m-46.07 0-1.72 4.65 2.91-.01v13.49c0 2.48-.45 3.86-1.66 5.09-.95.97-2.57 1.57-4.23 1.57-2.01 0-3.81-.67-4.94-1.84-1.13-1.12-1.68-2.97-1.68-5.66l-.01-17.29-8.43.02-1.71 4.63 3.59-.02V41.7c0 12.06 9.41 13 12.29 13 7.46 0 12.27-4.82 12.27-12.27l.03-13.56h2.14l1.66-4.65H90.05" id="path832"/>
    <path class="st4" d="m130.76 28.85.01 25.23h-3.52l-17.48-18.43c0 2.45-.01 13.79-.01 13.79h3.23l-1.68 4.66h-10.57l1.68-4.66h1.82V28.86h-3.85l1.67-4.65h6.49s12.53 13.07 16.87 17.66c0-1.42-.01-13.01-.01-13.01h-3.15l1.66-4.66h10.82l-1.67 4.66-2.31-.01m29.73-4.89c-.85 0-1.53.7-1.53 1.58 0 .9.68 1.59 1.53 1.59s1.52-.7 1.52-1.59c-.01-.88-.68-1.58-1.52-1.58zm0 2.93c-.69 0-1.24-.59-1.24-1.35 0-.74.56-1.33 1.23-1.33h.01c.69 0 1.23.6 1.23 1.34.01.75-.54 1.34-1.23 1.34z" id="path834"/>
    <path class="st4" d="M160.77 25.6v-.01c.18-.06.33-.2.33-.43 0-.17-.06-.29-.16-.37-.11-.08-.27-.14-.53-.14-.21 0-.34.03-.48.04v1.77h.27v-.76h.19c.22 0 .33.08.37.31.04.23.07.39.12.45h.28c-.03-.05-.06-.16-.11-.43-.03-.26-.13-.4-.28-.43zm-.38-.12h-.19v-.6c.05-.01.11-.01.19-.01.31 0 .42.15.42.31 0 .22-.19.3-.42.3z" id="path836"/>
    <g id="g848">
      <path class="st4" d="M97.27 67.86c-.95 0-1.82-.35-2.12-.85-.27-.45-.27-.77-.27-2.55l.01-1.35c0-.17-.3-.19-.43-.19h-.09l.13-.34h.02c.13 0 .75.03.98.03.26 0 .91-.04.91-.04l-.14.34c-.18 0-.47.04-.47.3v2.34c0 .67 0 1.79 1.41 1.79 1.04 0 1.53-.51 1.53-1.63l.01-2.6c0-.19-.38-.19-.38-.19l.12-.34h.02c.08 0 .42.03.69.03.3 0 .71-.04.71-.04l-.12.35h-.09c-.13 0-.34.04-.34.29l-.04 2.34c0 .34-.05 1.18-.47 1.67-.38.44-1.07.64-1.58.64m7.87-.11c-.71-.79-1.15-1.25-1.48-1.6-.17-.19-.32-.34-.46-.49l-.53-.58c-.5-.56-.91-1-1.09-1.19.02.37 0 1.81 0 1.81l.03 2.04-.5-.02-.69.04.13-.34c.16 0 .42-.03.42-.26l.01-.21c0-.2.02-.52.02-1.13l.01-2.63c0-.22-.25-.25-.36-.25l.09-.34h.02c.05 0 .22.02.36.02.17 0 .39-.02.39-.02 1.48 1.68 1.49 1.68 1.48 1.69.01 0 1.59 1.7 2 2.12-.02-.66 0-3.01 0-3.01l-.03-.78s.02-.01.04-.01c.1 0 .35.02.56.02.26 0 .67-.04.67-.04l-.12.34c-.1.01-.49.02-.49.22 0 0-.05 2.09-.05 2.68 0 .59.02 1.48.04 1.92h-.47m2.09-.34h.08c.12 0 .33-.03.33-.2v-4.06c0-.21-.29-.24-.47-.24h-.11l.12-.34h.02c.09 0 .47.03.85.03.43 0 .86-.04.86-.04l-.13.35c-.16.01-.33.04-.33.24v4.05c0 .08.05.13.15.16.09.03.2.04.28.04h.09l-.12.34h-.01c-.08 0-.4-.03-.83-.03-.48 0-.93.04-.93.04h-.02l.17-.34m4.62.35c-.01-.01-.53-1.24-1.14-2.58-.37-.82-.78-1.62-.96-1.97l-.05-.1c-.09-.18-.29-.2-.4-.2h-.08l.12-.34h.01c.05 0 .26.03.5.03.27 0 .53-.03.53-.03l1.46 3.11c.24.55.32.78.41 1.12.04-.2.73-1.79.74-1.81l.84-1.81c.14-.3.22-.6.22-.6h.01c.07 0 .33.03.51.03.21 0 .49-.04.49-.04l-.13.35c-.14 0-.35.05-.55.49-.15.31-.72 1.54-.72 1.54l-1.24 2.81h-.57m13.09.08c-.79 0-1.41-.05-2.16-.87-.95-1.04-1.92-2.13-1.94-2.17.02.2.03 1.82.03 2.25 0 .43.03.68.03.68s-.01.01-.03.01c-.07 0-.25-.03-.51-.03-.31 0-.85.04-.85.04l.13-.34c.2-.01.33-.04.38-.1.04-.04.04-.07.04-.1v-4.07c0-.21-.3-.24-.42-.24l.06-.34h.02c.1 0 .54.03.87.03.16 0 .25-.01.36-.01.15-.01.34-.02.75-.02.49 0 1.41.2 1.41.94 0 .77-.73 1.24-1.41 1.44 2.1 2.15 2.57 2.48 3.54 2.48.07 0 .15-.01.22-.02.42-.06 1.07-.41 1.08-1.08.01-.37.02-.88-1.12-.95-.9-.06-1.37-.46-1.4-1.2-.02-.41.14-.8.44-1.11.37-.38.9-.59 1.49-.59.76 0 1.08.36 1.08.36l-.07.93-.35-.03c-.01-.01-.08-.39-.08-.4-.02-.12-.37-.3-.88-.3-.57 0-.92.33-.92.84 0 .52.37.79 1.2.87.88.08 1.35.51 1.35 1.21-.01 1.04-1.13 1.89-2.34 1.89m-4.09-4.8c.01.01 0 1.58.01 1.7.88-.05 1.36-.43 1.36-1.07 0-.59-.58-.65-1.01-.65-.3 0-.35.02-.36.02m7.42 4.41h.08c.12 0 .33-.02.33-.2v-4.06c0-.21-.25-.24-.4-.24h-.09l.12-.34h.01c.07 0 .39.03.77.03.43 0 .95-.04.95-.04l-.13.34c-.17.01-.41.03-.41.25v4.05c0 .07.05.13.15.16.09.03.2.04.28.04h.08l-.12.34h-.01c-.07 0-.4-.03-.83-.03-.48 0-.92.04-.92.04h-.02l.16-.34m8.5.27-.87.04.12-.33c.02-.01.43-.03.43-.21l.01-1.44c0-.26-.21-.54-.52-.97-.11-.15-.23-.32-.36-.51-.82-1.21-.94-1.24-1.36-1.24-.47 0-1.03.01-1.07.03v4.14c0 .08.05.13.15.16.09.03.2.03.27.03h.09l-.12.34h-.02c-.07 0-.4-.03-.83-.03-.48 0-.92.04-.92.04l.13-.35h.08c.13 0 .33-.03.33-.2l.01-4.15c-.02 0-.12-.01-.61-.01h-.68c-.29 0-.42.41-.42.41l-.22-.14.28-.75 2 .03 2.04-.03c.75 0 .93.3 1.35 1.05.08.14.17.29.27.46.17.28.31.5.43.69l.23.37c.09-.22.7-1.15 1.11-1.76.21-.31.37-.56.39-.6.08-.14.09-.2.09-.2h.02c.04 0 .17.03.32.03.18 0 .65-.04.65-.04h.02l-.03.08c-.07.04-.38.17-.58.46-.05.07-.13.18-.23.31-.48.65-1.49 2.01-1.49 2.48l.01 1.32c0 .08.05.13.14.16.08.03.19.04.26.04h.11l-.13.34-.88-.05m-18.9.03c-.59-.01-1.35-.04-1.78-.04-.19 0-.36.02-.51.02-.11.01-.21.01-.29.01h-.14l.13-.33c.03-.01.4-.01.4-.37 0-.08 0-.26.01-.49.01-.46.02-1.16.02-1.82 0-.54-.01-1.05-.02-1.36l-.01-.29c0-.17-.2-.19-.32-.19h-.09l.13-.33h.01c.08 0 .39.02.67.02.58 0 1.75-.04 1.75-.04.45 0 .58.11.58.12 0 .01-.02.29-.02.51l.01.16c0 .01-.3.17-.31.18-.02-.26-.12-.5-.82-.5l-.77.01c.01.01-.03.13-.03.37v1.33l.14-.01h1.7l-.24.55h-.04c-.09 0-.35-.01-.7-.01-.27 0-.53.01-.7.01h-.16l.01 1.02c0 .41.02.71.04.89h.15c.19.01.52.02.71.02.29 0 .63-.01.84-.03-.01-.01.04-.65.04-.65l.44.31.01.6c0 .2.02.3.02.3l-.12.02-.74.01" id="path838"/>
      <g id="g846">
        <path class="st4" d="M86.15 75.66c-1.49 0-2.46-.99-2.46-2.52 0-1.14.5-1.99 1.44-2.45.46-.22.98-.34 1.49-.34 1.51 0 2.44.89 2.44 2.33.01 1.73-1.22 2.98-2.91 2.98m.19-4.78c-.77 0-1.45.39-1.72 1-.13.3-.2.66-.2 1.06 0 .91.29 1.49.95 1.89.32.2.7.3 1.08.3 1.13 0 1.89-.9 1.89-2.22 0-.86-.33-1.46-.97-1.79-.3-.16-.66-.24-1.03-.24m3.68 4.32c.22 0 .45-.05.45-.36v-3.96c0-.17-.26-.19-.41-.19-.07 0-.11.01-.11.01l.13-.34h.01c.05 0 .28.03.79.03.59 0 1.76-.04 1.76-.04.44 0 .57.12.58.12.01.01-.02.29-.02.52l.01.16c-.01.01-.3.17-.32.18-.02-.25-.12-.5-.82-.5l-.77.01c0 .01-.03.13-.03.37 0 0 0 1.16-.01 1.33l1.82-.01-.22.51-1.59.01.01 1.96c0 .07.05.13.14.16.08.03.19.04.26.04h.12l-.13.33h-.01c-.06 0-.34-.03-.77-.03-.49 0-.99.04-.99.04h-.02l.14-.35m10.97.32a56.62 56.62 0 0 0-1.47-1.59c-.18-.19-.32-.34-.47-.5l-.42-.46c-.55-.61-1-1.11-1.2-1.31.03.37.01 1.81.01 1.81l.01 2.03h-.05c-.07 0-.22-.01-.44-.01-.31 0-.69.04-.69.04l.13-.34c.16 0 .42-.03.42-.26v-.21c.01-.2.02-.52.02-1.13 0 0 .01-2.25.01-2.62 0-.17-.19-.25-.57-.25l-.1-.01c-.01-.01-.01-.01.13-.34h.03c.11 0 .47.02.61.02.17 0 .39-.02.39-.02 1.48 1.67 1.49 1.68 1.48 1.69.01 0 1.58 1.7 2 2.12v-3.01l-.02-.78h.04c.1 0 .35.02.56.02.25 0 .58-.04.58-.04l-.12.34c-.09.01-.4.02-.4.22 0 0-.05 2.09-.05 2.67 0 .59.03 1.48.04 1.92h-.46m12.58.46c-.22-.12-.49-.44-.8-.8a9.01 9.01 0 0 0-.42-.48c-.96-1.05-1.92-2.14-1.94-2.16.03.2.03 1.81.03 2.24 0 .43.02.68.02.68h-.03c-.07 0-.26-.02-.51-.02-.32 0-.85.04-.85.04l.13-.34c.2-.01.32-.04.38-.1.04-.04.04-.07.04-.09l.07-2.41c0-.63-.04-1.11-.05-1.4-.01-.12-.01-.21-.01-.25 0-.21-.29-.23-.42-.23l.06-.34h.02c.1 0 .54.03.87.03.15 0 .25-.01.36-.02.15-.01.33-.02.74-.02.49 0 1.41.19 1.41.94 0 .79-.6 1.13-1.18 1.35-.06.02-.2.06-.22.06.13.07.65.6 1.25 1.22.49.5 1.04 1.07 1.47 1.49.26.26.38.37.72.59l.04.03-1.18-.01m-2.79-5.24c-.29 0-.35.02-.35.02l.01 1.7c.14-.01.48-.01.79-.15.37-.16.56-.48.56-.92 0-.45-.31-.65-1.01-.65m-5.54 4.87c-1.51 0-2.48-1-2.48-2.54 0-1.16.5-2.01 1.45-2.47.47-.23.99-.35 1.51-.35 1.52 0 2.47.9 2.47 2.35-.01 1.75-1.24 3.01-2.95 3.01m.18-4.79c-.76 0-1.42.39-1.69.98-.13.3-.2.67-.2 1.06 0 .9.29 1.48.94 1.88.32.2.69.3 1.07.3 1.12 0 1.87-.89 1.87-2.2 0-.84-.32-1.44-.96-1.76a2.1 2.1 0 0 0-1.03-.26m9.63 4.34c.14 0 .28-.03.28-.2l.03-2.4-.03-1.74c-.01 0-.11-.01-.6-.01-.34 0-.68.01-.68.01-.29 0-.42.41-.42.41l-.22-.14.28-.75 1.99.03 2.23-.02-.09.83-.23.02c-.01-.02-.01-.19-.11-.3a.324.324 0 0 0-.24-.09c-.47 0-1.06.02-1.09.03v.22c-.01.32-.03.89-.03 1.5 0 .75.01 1.55.03 2.02v.39c0 .08.05.13.16.16.09.03.2.04.27.04h.09l-.12.34h-.02c-.07 0-.4-.03-.83-.03-.47 0-.78.04-.78.04h-.03l.16-.36m7.33.01.08.01c.12 0 .33-.03.33-.2v-1.91c0 .01-.05.01-.13.01-.22 0-.7-.01-1.4-.01-1 0-1.44.02-1.44.02l.01 1.89c0 .07.05.13.15.16.09.02.2.03.28.03h.08l-.12.34h-.02c-.07 0-.4-.03-.83-.03-.47 0-.92.04-.92.04l.13-.35h.08c.12 0 .33-.03.33-.2l.06-2.44-.05-1.61c0-.2-.25-.23-.4-.23h-.09l.12-.34h.02c.07 0 .39.03.77.03.43 0 .95-.04.95-.04l-.13.34c-.2.01-.41.03-.41.24v1.62s.06-.01.15-.01c.27 0 .86.01 1.3.01.6 0 1.53-.02 1.53-.02l-.01-1.6c0-.21-.25-.24-.39-.24-.05 0-.09.01-.09.01l.12-.34h.02c.07 0 .39.03.77.03.43 0 .95-.04.95-.04l-.13.34c-.2.01-.41.04-.41.24 0 .03 0 .11-.01.22-.02.29-.06.8-.06 1.37 0 .74.04 1.57.06 2.05.01.21.01.35.01.41 0 .18.3.19.43.19h.09l-.12.34h-.02c-.07 0-.4-.03-.83-.03-.48 0-.92.04-.92.04h-.02l.13-.34m12.75.75s.3-.23.55-.49c.27-.28 1.36-1.6 1.82-2.19 0 0 .17-.21.18-.23-.08-.1-.14-.18-.16-.21-.09-.14-.18-.27-.28-.44-.12-.19-.26-.41-.43-.66-.62-.92-.73-1.01-1.19-1.01l.11-.34.53.03c.15 0 .58-.03.58-.03.01.01.79 1.21 1.18 1.79l.17.25c-.01-.03.05-.11.1-.18.19-.26.45-.59.68-.89.27-.35.53-.69.57-.74.08-.14.09-.21.09-.21h.04c.07 0 .27.02.41.02.19 0 .5-.01.5-.01 0 .03-.31.18-.54.48l-.36.47c-.32.44-.76 1.02-1.06 1.41l-.1.12c-.04.04-.01.08.02.12.04.05.08.1.09.12.22.33.95 1.37 1.31 1.88.08.12.12.16.14.16.03 0 .04-.02.07-.07l.9-1.95 1.23-2.8.56-.01c.02.02.26.71.86 2.04.69 1.52.96 2.02 1.32 2.66.05.08.21.25.46.25l.06-.99.36.04c.01.01.08.42.08.42.02.12.38.3.91.3.32 0 .6-.1.76-.3.14-.15.21-.34.21-.57 0-.54-.4-.82-1.27-.9-.9-.08-1.39-.52-1.39-1.25 0-.33.11-.66.32-.95.37-.48.97-.76 1.66-.76.25 0 .47.04.68.11.3.11.43.25.44.26l-.07.97-.36-.03c-.01-.01-.08-.42-.08-.42-.02-.12-.38-.3-.91-.3-.56 0-.93.3-.97.79 0 .61.4.9 1.26.97.9.08 1.4.52 1.4 1.25 0 .33-.11.66-.32.95-.37.48-.97.75-1.66.75-.25 0-.48-.04-.68-.11l-.25-.03-.02.09h-.01c-.08 0-.53-.04-.77-.04-.27 0-.51.04-.51.04l-.9-1.92h-.06c-.13 0-.46-.01-.99-.01-.7 0-.93.01-.93.01l-.17.39-.4.87c-.03.08-.03.14 0 .19.08.12.34.14.45.14l-.07.33h-.03c-.16 0-.94-.03-1.17-.03-.36 0-.71.03-.71.03-.28-.44-.72-1.07-1.04-1.54l-.22-.33c-.03-.04-.05-.08-.07-.11l-.14.11-.57.73c-.46.58-1.02 1.3-1.06 1.36-.09.15-.15.18-.15.18l-1.02.01.03-.04m6.61-2.85c.07 0 .35.02.68.02.39 0 .79-.02.79-.02l-.28-.67-.24-.58c-.09-.22-.16-.39-.2-.51-.12.31-.73 1.72-.75 1.77-.02-.01-.01-.01 0-.01m-13.34 2.11c.14 0 .28-.03.28-.2l.03-2.4-.02-1.74c-.01 0-.11-.01-.61-.01-.33 0-.68.01-.68.01-.29 0-.42.4-.42.41l-.21-.14.28-.75 1.99.03 2.23-.02-.09.83-.23.02c-.01-.02 0-.19-.11-.3-.06-.06-.14-.09-.25-.09-.46 0-1.05.02-1.09.03v.22c-.01.31-.02.89-.02 1.49 0 .75.01 1.56.02 2.03l.01.39c0 .08.05.13.16.16.09.03.2.03.27.03h.08l-.12.34h-.01c-.08 0-.4-.03-.83-.03-.47 0-.78.04-.78.04h-.03l.15-.35" id="path840"/>
        <path class="st4" d="m134.76 75.53-.56-.01c-.51-.02-1.11-.03-1.5-.03-.33 0-.94.04-.94.04l.13-.33c.02-.01.12-.01.21-.05.13-.06.19-.17.19-.32 0-.08 0-.25.01-.49.01-.46.02-1.15.02-1.81 0-.53-.01-1.04-.02-1.35v-.28c0-.17-.26-.19-.41-.19h-.11l.13-.33h.02c.1 0 .49.02.77.02.59 0 1.75-.04 1.75-.04.45 0 .57.11.58.12 0 .02-.02.29-.02.51l.01.16c-.01.02-.3.17-.31.18-.02-.26-.12-.5-.82-.5l-.77.01c.01.01-.03.13-.03.37v1.32l.14-.01h1.84l-.23.55h-.06c-.14 0-.48-.01-.83-.01-.27 0-.52.01-.69.02h-.15c.01.22.01.9.01.9v.12c0 .41.01.71.04.89l.1-.01c.19.01.54.02.75.02.29 0 .45-.01.67-.04l.03-.65.44.31v.6c0 .2.03.3.03.3v.02h-.02l-.4-.01m15.14-4.85c0-.17-.1-.25-.3-.25h-.34v.89h.1v-.4h.21l.25.39v.01h.11l-.26-.4c.15-.04.23-.12.23-.24zm-.53-.16h.23c.08 0 .2.02.2.16 0 .13-.1.15-.26.15h-.17z" id="path842"/>
        <path class="st4" d="M149.55 70.12a.74.74 0 0 0-.74.75c0 .41.33.75.74.75s.74-.33.74-.75c0-.41-.33-.75-.74-.75zm0 1.4c-.36 0-.65-.29-.65-.65 0-.37.28-.65.65-.65s.64.28.64.65c0 .36-.28.65-.64.65z" id="path844"/>
      </g>
    </g>
  </g>
</svg>
